<mxfile host="app.diagrams.net" modified="2023-05-16T14:09:23.229Z" agent="Mozilla/5.0 (X11; Ubuntu; Linux x86_64; rv:109.0) Gecko/20100101 Firefox/112.0" etag="wgkxxFeilS3KVwntXXYt" version="21.3.2" type="device">
  <diagram name="Page-1" id="tpmm5qy2FPJMLZr56j2t">
    <mxGraphModel dx="1434" dy="779" grid="1" gridSize="10" guides="1" tooltips="1" connect="1" arrows="1" fold="1" page="1" pageScale="1" pageWidth="850" pageHeight="1100" math="0" shadow="0">
      <root>
        <mxCell id="0" />
        <mxCell id="1" parent="0" />
        <mxCell id="yN_6NNA6e4bb_lLPipn2-14" value="superblock 1" style="rounded=0;whiteSpace=wrap;html=1;verticalAlign=top;" vertex="1" parent="1">
          <mxGeometry x="160" y="440" width="360" height="120" as="geometry" />
        </mxCell>
        <mxCell id="yN_6NNA6e4bb_lLPipn2-11" value="superblock 2" style="rounded=0;whiteSpace=wrap;html=1;verticalAlign=top;" vertex="1" parent="1">
          <mxGeometry x="160" y="320" width="360" height="120" as="geometry" />
        </mxCell>
        <mxCell id="yN_6NNA6e4bb_lLPipn2-12" value="superblock 3" style="rounded=0;whiteSpace=wrap;html=1;verticalAlign=top;" vertex="1" parent="1">
          <mxGeometry x="160" y="200" width="360" height="120" as="geometry" />
        </mxCell>
        <mxCell id="yN_6NNA6e4bb_lLPipn2-23" value="skip superblock" style="edgeStyle=orthogonalEdgeStyle;rounded=0;orthogonalLoop=1;jettySize=auto;html=1;exitX=1;exitY=0.75;exitDx=0;exitDy=0;entryX=1;entryY=0.75;entryDx=0;entryDy=0;" edge="1" parent="1" source="yN_6NNA6e4bb_lLPipn2-14" target="yN_6NNA6e4bb_lLPipn2-11">
          <mxGeometry relative="1" as="geometry" />
        </mxCell>
        <mxCell id="yN_6NNA6e4bb_lLPipn2-19" value="skip superblock" style="edgeStyle=orthogonalEdgeStyle;rounded=0;orthogonalLoop=1;jettySize=auto;html=1;exitX=1;exitY=0.75;exitDx=0;exitDy=0;entryX=1;entryY=0.5;entryDx=0;entryDy=0;" edge="1" parent="1" source="yN_6NNA6e4bb_lLPipn2-12" target="yN_6NNA6e4bb_lLPipn2-18">
          <mxGeometry relative="1" as="geometry" />
        </mxCell>
        <mxCell id="yN_6NNA6e4bb_lLPipn2-22" value="skip superblock" style="edgeStyle=orthogonalEdgeStyle;rounded=0;orthogonalLoop=1;jettySize=auto;html=1;exitX=1;exitY=0.75;exitDx=0;exitDy=0;entryX=1;entryY=0.75;entryDx=0;entryDy=0;" edge="1" parent="1" source="yN_6NNA6e4bb_lLPipn2-11" target="yN_6NNA6e4bb_lLPipn2-12">
          <mxGeometry relative="1" as="geometry" />
        </mxCell>
        <mxCell id="yN_6NNA6e4bb_lLPipn2-1" value="recursiveLayers (x6)" style="rounded=0;whiteSpace=wrap;html=1;" vertex="1" parent="1">
          <mxGeometry x="200" y="240" width="240" height="40" as="geometry" />
        </mxCell>
        <mxCell id="yN_6NNA6e4bb_lLPipn2-4" style="edgeStyle=orthogonalEdgeStyle;rounded=0;orthogonalLoop=1;jettySize=auto;html=1;exitX=0.5;exitY=0;exitDx=0;exitDy=0;entryX=0.75;entryY=1;entryDx=0;entryDy=0;curved=1;" edge="1" parent="1" source="yN_6NNA6e4bb_lLPipn2-1" target="yN_6NNA6e4bb_lLPipn2-1">
          <mxGeometry relative="1" as="geometry" />
        </mxCell>
        <mxCell id="yN_6NNA6e4bb_lLPipn2-5" value="recursiveLayers (x6)" style="rounded=0;whiteSpace=wrap;html=1;" vertex="1" parent="1">
          <mxGeometry x="200" y="360" width="240" height="40" as="geometry" />
        </mxCell>
        <mxCell id="yN_6NNA6e4bb_lLPipn2-6" style="edgeStyle=orthogonalEdgeStyle;rounded=0;orthogonalLoop=1;jettySize=auto;html=1;exitX=0.5;exitY=0;exitDx=0;exitDy=0;entryX=0.75;entryY=1;entryDx=0;entryDy=0;curved=1;" edge="1" parent="1" source="yN_6NNA6e4bb_lLPipn2-5" target="yN_6NNA6e4bb_lLPipn2-5">
          <mxGeometry relative="1" as="geometry" />
        </mxCell>
        <mxCell id="yN_6NNA6e4bb_lLPipn2-7" value="&lt;font style=&quot;font-size: 36px;&quot;&gt;Transformer Segregated Layers&lt;/font&gt;" style="text;html=1;strokeColor=none;fillColor=none;align=center;verticalAlign=middle;whiteSpace=wrap;rounded=0;" vertex="1" parent="1">
          <mxGeometry x="120" y="70" width="510" height="30" as="geometry" />
        </mxCell>
        <mxCell id="yN_6NNA6e4bb_lLPipn2-8" value="recursiveLayers (x6)" style="rounded=0;whiteSpace=wrap;html=1;" vertex="1" parent="1">
          <mxGeometry x="200" y="480" width="240" height="40" as="geometry" />
        </mxCell>
        <mxCell id="yN_6NNA6e4bb_lLPipn2-9" style="edgeStyle=orthogonalEdgeStyle;rounded=0;orthogonalLoop=1;jettySize=auto;html=1;exitX=0.5;exitY=0;exitDx=0;exitDy=0;entryX=0.75;entryY=1;entryDx=0;entryDy=0;curved=1;" edge="1" parent="1" source="yN_6NNA6e4bb_lLPipn2-8" target="yN_6NNA6e4bb_lLPipn2-8">
          <mxGeometry relative="1" as="geometry" />
        </mxCell>
        <mxCell id="yN_6NNA6e4bb_lLPipn2-18" value="transformer head" style="rounded=0;whiteSpace=wrap;html=1;fillColor=#d5e8d4;strokeColor=#82b366;verticalAlign=top;" vertex="1" parent="1">
          <mxGeometry x="160" y="160" width="360" height="40" as="geometry" />
        </mxCell>
        <mxCell id="yN_6NNA6e4bb_lLPipn2-21" value="transformer input" style="rounded=0;whiteSpace=wrap;html=1;fillColor=#d5e8d4;strokeColor=#82b366;verticalAlign=top;" vertex="1" parent="1">
          <mxGeometry x="160" y="560" width="360" height="40" as="geometry" />
        </mxCell>
        <mxCell id="yN_6NNA6e4bb_lLPipn2-24" value="&lt;div align=&quot;left&quot;&gt;- recursive layers (optional):&lt;br&gt;&lt;/div&gt;&lt;div align=&quot;left&quot;&gt;1. recursiveLayers: pass input through same transformer layer multiple times. &lt;br&gt;&lt;/div&gt;&lt;div align=&quot;left&quot;&gt;2. each superblock uses a set of unique transformer layers.&lt;/div&gt;&lt;div align=&quot;left&quot;&gt;- superblocks have skip connections between them (with transformerSegregatedLayersLayerNorm)&lt;br&gt;&lt;/div&gt;" style="text;html=1;strokeColor=#6c8ebf;fillColor=#dae8fc;align=left;verticalAlign=middle;whiteSpace=wrap;rounded=0;" vertex="1" parent="1">
          <mxGeometry x="158" y="640" width="432" height="80" as="geometry" />
        </mxCell>
      </root>
    </mxGraphModel>
  </diagram>
</mxfile>
